<?xml version="1.0" encoding="UTF-8" standalone="no"?>
<!-- Created with Inkscape (http://www.inkscape.org/) -->

<svg
   width="16.933332mm"
   height="16.933332mm"
   viewBox="0 0 16.933333 16.933333"
   version="1.1"
   id="svg5"
   sodipodi:docname="icon.svg"
   inkscape:version="1.3 (0e150ed6c4, 2023-07-21)"
   inkscape:export-filename="../../../../../home/sir-vladimir/Desktop/Impaler Server/server-icon.png"
   inkscape:export-xdpi="96.000008"
   inkscape:export-ydpi="96.000008"
   xmlns:inkscape="http://www.inkscape.org/namespaces/inkscape"
   xmlns:sodipodi="http://sodipodi.sourceforge.net/DTD/sodipodi-0.dtd"
   xmlns="http://www.w3.org/2000/svg"
   xmlns:svg="http://www.w3.org/2000/svg">
  <sodipodi:namedview
     id="namedview7"
     pagecolor="#505050"
     bordercolor="#eeeeee"
     borderopacity="1"
     inkscape:pageshadow="0"
     inkscape:pageopacity="0"
     inkscape:pagecheckerboard="0"
     inkscape:document-units="mm"
     showgrid="false"
     inkscape:zoom="6.9342494"
     inkscape:cx="19.035946"
     inkscape:cy="25.669685"
     inkscape:window-width="1600"
     inkscape:window-height="846"
     inkscape:window-x="0"
     inkscape:window-y="0"
     inkscape:window-maximized="1"
     inkscape:current-layer="svg5"
     inkscape:showpageshadow="2"
     inkscape:deskcolor="#d1d1d1" />
  <defs
     id="defs2">
    <inkscape:path-effect
       effect="fill_between_many"
       method="originald"
       linkedpaths="#layer1-3,0,1|"
       id="path-effect3" />
  </defs>
  <g
     inkscape:label="Layer 1"
     id="layer1-3"
     transform="matrix(0.12414627,0,0,0.12414627,4.6319859,8.9854457)">
    <path
       style="display:inline;stroke-width:0.264583;fill:#ffffff"
       d="M 99.00137,25.417888 A 1.6324115,26.97267 85 0 0 75.778235,26.63644 1.6324115,26.97267 85 0 0 51.042211,29.815272 54.661415,1.6218065 10 0 0 0.77839859,19.881422 54.661415,1.6218065 10 0 0 -10.011971,18.01533 43.006615,0.8397972 -180 0 0 13.008072,18.147781 43.006615,0.8397972 -180 0 0 56.016495,17.305979 43.006615,0.8397972 -180 0 0 13.008072,16.464177 43.006615,0.8397972 -180 0 0 -17.729469,16.72025 54.661415,1.6218065 10 0 0 -40.534647,13.188214 54.661415,1.6218065 -180 0 0 0.79017204,13.747453 54.661415,1.6218065 -180 0 0 52.658118,12.640748 26.97267,1.6324115 15 0 0 76.949694,20.284663 26.97267,1.6324115 15 0 0 99.00137,25.417888 Z"
       transform="rotate(-45)"
       id="path12" />
    <path
       style="display:inline;stroke-width:0.264583;fill:#ffffff"
       d="M 91.032184,-55.039655 A 1.6324115,26.97267 60 0 0 67.122528,-42.89335 1.6324115,26.97267 60 0 0 44.948656,-28.595011 1.6218065,54.661415 45 0 0 7.9894268,6.869866 1.6218065,54.661415 45 0 0 -29.515095,46.667949 a 1.6218065,54.661415 45 0 0 1.469377,-0.907434 1.6218065,54.661415 55 0 0 44.51841,-29.595688 1.6218065,54.661415 55 0 0 40.089462,-29.216898 1.6324115,26.97267 40 0 0 18.360982,-19.593095 1.6324115,26.97267 40 0 0 16.084073,-21.711833 1.6324115,26.97267 40 0 0 -0.09162,0.0084 1.6324115,26.97267 60 0 0 0.38296,-0.620226 1.6324115,26.97267 60 0 0 -0.266404,-0.07076 z"
       id="ellipse12" />
  </g>
  <g
     inkscape:label="Layer 1"
     id="layer1-6"
     transform="matrix(0.12826402,0,0,0.12826402,4.5047953,9.0026528)">
    <ellipse
       style="fill:#000000;stroke-width:0.264583"
       id="path959"
       cx="0.79060215"
       cy="12.127779"
       rx="54.661415"
       ry="1.6218065"
       transform="rotate(-45)" />
    <ellipse
       style="fill:#000000;stroke-width:0.264583"
       id="path959-3"
       cx="4.219564"
       cy="21.066868"
       rx="54.661415"
       ry="1.6218065"
       transform="rotate(-35)" />
    <ellipse
       style="fill:#000000;stroke-width:0.230634"
       id="path1090"
       cx="-79.576645"
       cy="1.9561343"
       rx="26.97267"
       ry="1.6324115"
       transform="rotate(150)" />
    <ellipse
       style="fill:#000000;stroke-width:0.230634"
       id="path1090-6"
       cx="-73.166153"
       cy="-34.772572"
       rx="26.97267"
       ry="1.6324115"
       transform="rotate(130)" />
    <ellipse
       style="fill:#000000;stroke-width:0.264583"
       id="path1221"
       cx="-13.007139"
       cy="-17.306025"
       rx="43.006615"
       ry="0.8397972"
       transform="rotate(135)" />
  </g>
</svg>
